<?xml version="1.0" encoding="UTF-8"?>
<svg version="1.1" xmlns="http://www.w3.org/2000/svg" width="1254" height="1254">
<path d="M0 0 C413.82 0 827.64 0 1254 0 C1254 413.82 1254 827.64 1254 1254 C840.18 1254 426.36 1254 0 1254 C0 840.18 0 426.36 0 0 Z " fill="#FEFDFE" transform="translate(0,0)"/>
<path d="M0 0 C12.04721355 7.55058641 19.93453062 18.16785762 23.46875 31.84375 C24.44136142 37.6222061 25.67879845 46.6424031 23 52 C23.76570313 52.20109375 24.53140625 52.4021875 25.3203125 52.609375 C30.52560818 54.57655681 35.10375727 57.40690427 39.875 60.25 C42.03897485 61.5261903 44.20303985 62.80222775 46.3671875 64.078125 C47.47030273 64.73103516 48.57341797 65.38394531 49.70996094 66.05664062 C54.79391365 69.05962843 59.89726313 72.02908442 65 75 C67.00010641 76.16648423 69.00010611 77.33315146 71 78.5 C71.99 79.0775 72.98 79.655 74 80.25 C107 99.5 107 99.5 109.99951172 101.24975586 C112.00109211 102.41731728 114.00271977 103.58479764 116.00439453 104.75219727 C120.98060392 107.65451416 125.95600455 110.55819916 130.9296875 113.46484375 C144.59612918 121.44901153 158.29602831 129.37375166 172.00976562 137.27636719 C182.77678254 143.48269797 193.53135554 149.70833475 204.23657227 156.02075195 C211.50578338 160.30488778 218.79176677 164.56040116 226.09155273 168.79223633 C230.81987554 171.53745762 235.52575852 174.30495228 240.171875 177.1875 C241.34169922 177.90486328 241.34169922 177.90486328 242.53515625 178.63671875 C243.9731356 179.52182421 245.40341351 180.41961207 246.82421875 181.33203125 C248.90626796 182.65668807 248.90626796 182.65668807 252 184 C254.2558609 183.59883908 254.2558609 183.59883908 256 182 C257.08474609 181.21496094 257.08474609 181.21496094 258.19140625 180.4140625 C258.97386719 179.82367188 259.75632812 179.23328125 260.5625 178.625 C271.38770917 171.09920146 282.07217698 169.66936729 295 171 C308.4765126 173.4914177 318.63865411 180.94967436 326.875 191.75 C333.9753189 202.64386989 335.68734133 215.05723661 333.52734375 227.78515625 C329.94852508 241.30751901 321.92912335 251.89072447 310 259 C301.58944282 263 301.58944282 263 298 263 C298 344.51 298 426.02 298 510 C300.97 510.66 303.94 511.32 307 512 C319.97972128 518.65579457 328.54890619 529.76490673 333.140625 543.3828125 C336.08394971 555.77153377 334.37050925 568.7288209 327.875 579.625 C321.20569382 589.38529985 313.95981115 595.48887665 303 600 C302.09894531 600.37382813 301.19789063 600.74765625 300.26953125 601.1328125 C289.5922505 603.96477944 276.34034028 603.41066322 266.4453125 598.51953125 C263.3300655 596.58369885 260.50429767 594.43687591 257.81640625 591.94140625 C257.21699219 591.63074219 256.61757813 591.32007813 256 591 C252.44938571 592.18216072 249.32133 593.87102851 246.10546875 595.765625 C244.69164917 596.59477417 244.69164917 596.59477417 243.24926758 597.44067383 C242.23888428 598.03775146 241.22850098 598.6348291 240.1875 599.25 C238.00787084 600.53004726 235.82818173 601.80999245 233.6484375 603.08984375 C232.53823242 603.7432373 231.42802734 604.39663086 230.28417969 605.06982422 C225.30178171 607.99807566 220.30666803 610.90438633 215.3125 613.8125 C206.36700179 619.02806011 197.43184666 624.26111429 188.5 629.5 C176.65008551 636.45044933 164.78874751 643.38105772 152.91943359 650.29833984 C148.94953456 652.61228835 144.98047398 654.92767283 141.01147461 657.24316406 C139.00584879 658.4132073 137.00015231 659.58312943 134.99438477 660.75292969 C130.01857047 663.65498223 125.0435858 666.55843857 120.0703125 669.46484375 C108.47459228 676.23910029 96.85659427 682.97305232 85.21923828 689.67553711 C79.29628807 693.08954022 73.38543523 696.52174365 67.5 700 C60.19343339 704.31713918 52.85002802 708.56991825 45.5 712.8125 C43.85161133 713.76479492 43.85161133 713.76479492 42.16992188 714.73632812 C36.14246892 718.21158318 30.09645826 721.64714261 24 725 C24.03480469 725.87140625 24.06960938 726.7428125 24.10546875 727.640625 C24.47354959 743.8361818 20.63294687 756.85060273 9.3984375 768.73828125 C-1.92875917 779.41979082 -14.13530136 781.60137151 -29.21484375 781.34375 C-41.04028742 780.7858364 -50.25863157 774.09573126 -58.1875 765.8125 C-62.31435023 761.02081338 -64.7129626 755.85056079 -67 750 C-67.3609375 749.12472656 -67.721875 748.24945312 -68.09375 747.34765625 C-70.85760241 740.18784892 -70.48145901 732.40729504 -69 725 C-69.88486084 724.72849121 -70.76972168 724.45698242 -71.68139648 724.17724609 C-74.76447735 723.08354964 -77.29451894 721.83073469 -80.09765625 720.1640625 C-81.05260986 719.60090332 -82.00756348 719.03774414 -82.99145508 718.45751953 C-84.0048999 717.85278809 -85.01834473 717.24805664 -86.0625 716.625 C-88.23387039 715.34289501 -90.40575426 714.06165929 -92.578125 712.78125 C-93.66287109 712.14058594 -94.74761719 711.49992188 -95.86523438 710.83984375 C-100.32264277 708.22371994 -104.81582187 705.67281 -109.3125 703.125 C-118.01808486 698.17835963 -126.6341913 693.08609344 -135.23812866 687.96557617 C-143.68638059 682.93948203 -152.17876021 678.00244188 -160.72631836 673.14746094 C-165.86588356 670.22645237 -170.97669275 667.26353429 -176.0625 664.25 C-182.85743313 660.22568852 -189.70891235 656.30537292 -196.57296753 652.40026855 C-206.60556787 646.69220845 -216.58427325 640.9096366 -226.5 635 C-237.93004166 628.19027682 -249.45252753 621.5600753 -261.015625 614.98046875 C-269.21887318 610.3121881 -277.39232288 605.59292495 -285.56469727 600.87084961 C-287.5245723 599.73843202 -289.48671561 598.60992621 -291.45166016 597.48632812 C-293.03300156 596.56400522 -294.59905932 595.6142162 -296.13818359 594.62304688 C-298.12418494 593.31145284 -298.12418494 593.31145284 -301 592 C-303.16742675 592.45501886 -303.16742675 592.45501886 -305 594 C-306.9784282 595.00146022 -308.95765679 596.00134012 -310.9375 597 C-311.95714844 597.515625 -312.97679687 598.03125 -314.02734375 598.5625 C-324.60134297 603.67581368 -335.76303203 604.45157556 -347 601 C-360.36883051 595.72930015 -370.93880935 587.38262887 -377 574 C-381.32304143 562.34586929 -381.78470273 549.43720537 -377.32421875 537.77734375 C-371.904386 526.4100839 -362.67656702 516.08978562 -351 511 C-348.69 510.67 -346.38 510.34 -344 510 C-344 428.49 -344 346.98 -344 263 C-346.97 262.34 -349.94 261.68 -353 261 C-356.27148627 259.34729361 -359.08114438 257.20991156 -362 255 C-363.546875 253.88625 -363.546875 253.88625 -365.125 252.75 C-373.95072654 244.3080007 -379.94835929 232.93339167 -380.29272461 220.61962891 C-380.41814958 207.57233515 -377.47025164 197.18232378 -369 187 C-368.47664063 186.36449219 -367.95328125 185.72898437 -367.4140625 185.07421875 C-359.67850825 176.56510907 -349.12106014 171.28719461 -337.66796875 170.6640625 C-321.80216789 170.34548618 -310.3357213 174.88732388 -298 185 C-297.39865234 184.64921387 -296.79730469 184.29842773 -296.17773438 183.93701172 C-295.32501953 183.43959473 -294.47230469 182.94217773 -293.59375 182.4296875 C-292.6346875 181.87023437 -291.675625 181.31078125 -290.6875 180.734375 C-286.83032227 178.48435465 -282.97314453 176.23433431 -279.1159668 173.98431396 C-278.54531494 173.65143372 -277.97466309 173.31855347 -277.38671875 172.97558594 C-275.22265625 171.71321615 -273.05859375 170.45084635 -270.89453125 169.18847656 C-269.90839844 168.61323242 -268.92226563 168.03798828 -267.90625 167.4453125 C-266.44215698 166.59126831 -266.44215698 166.59126831 -264.94848633 165.7199707 C-262.96392501 164.56229624 -260.97938769 163.40458063 -258.99487305 162.24682617 C-254.05572814 159.36542496 -249.11620204 156.48468187 -244.17578125 153.60546875 C-224.65038852 142.22462789 -205.13578267 130.82473442 -185.6875 119.3125 C-177.29144924 114.3427816 -168.87141079 109.41542791 -160.44091797 104.50439453 C-149.48051269 98.11855406 -138.53891484 91.70076036 -127.59744263 85.28256226 C-123.22738101 82.71928483 -118.85612201 80.15805792 -114.484375 77.59765625 C-113.24022843 76.86882525 -111.99608778 76.13998415 -110.75195312 75.41113281 C-108.31608568 73.98413519 -105.87982409 72.55781349 -103.44335938 71.13183594 C-97.73616278 67.78972674 -92.0382282 64.43313889 -86.359375 61.04296875 C-85.33448975 60.43227539 -84.30960449 59.82158203 -83.25366211 59.19238281 C-81.34073835 58.05101185 -79.42996868 56.9060202 -77.52172852 55.75683594 C-76.68569092 55.25829102 -75.84965332 54.75974609 -74.98828125 54.24609375 C-74.26165283 53.80966553 -73.53502441 53.3732373 -72.78637695 52.92358398 C-71 52 -71 52 -69 52 C-69.165 51.175 -69.33 50.35 -69.5 49.5 C-71.49621091 35.52652362 -67.22278687 22.58030896 -58.91015625 11.3203125 C-44.77737546 -5.84711448 -19.53681682 -10.79306663 0 0 Z " fill="#FCFCFD" transform="translate(650,216)"/>
<path d="M0 0 C12.04721355 7.55058641 19.93453062 18.16785762 23.46875 31.84375 C24.44136142 37.6222061 25.67879845 46.6424031 23 52 C23.76570313 52.20109375 24.53140625 52.4021875 25.3203125 52.609375 C30.52560818 54.57655681 35.10375727 57.40690427 39.875 60.25 C42.03897485 61.5261903 44.20303985 62.80222775 46.3671875 64.078125 C47.47030273 64.73103516 48.57341797 65.38394531 49.70996094 66.05664062 C54.79391365 69.05962843 59.89726313 72.02908442 65 75 C67.00010641 76.16648423 69.00010611 77.33315146 71 78.5 C71.99 79.0775 72.98 79.655 74 80.25 C107 99.5 107 99.5 109.99951172 101.24975586 C112.00109211 102.41731728 114.00271977 103.58479764 116.00439453 104.75219727 C120.98060392 107.65451416 125.95600455 110.55819916 130.9296875 113.46484375 C144.59612918 121.44901153 158.29602831 129.37375166 172.00976562 137.27636719 C182.77678254 143.48269797 193.53135554 149.70833475 204.23657227 156.02075195 C211.50578338 160.30488778 218.79176677 164.56040116 226.09155273 168.79223633 C230.81987554 171.53745762 235.52575852 174.30495228 240.171875 177.1875 C241.34169922 177.90486328 241.34169922 177.90486328 242.53515625 178.63671875 C243.9731356 179.52182421 245.40341351 180.41961207 246.82421875 181.33203125 C248.90626796 182.65668807 248.90626796 182.65668807 252 184 C254.2558609 183.59883908 254.2558609 183.59883908 256 182 C257.08474609 181.21496094 257.08474609 181.21496094 258.19140625 180.4140625 C258.97386719 179.82367188 259.75632812 179.23328125 260.5625 178.625 C271.38770917 171.09920146 282.07217698 169.66936729 295 171 C308.4765126 173.4914177 318.63865411 180.94967436 326.875 191.75 C333.9753189 202.64386989 335.68734133 215.05723661 333.52734375 227.78515625 C329.94852508 241.30751901 321.92912335 251.89072447 310 259 C301.58944282 263 301.58944282 263 298 263 C298 344.51 298 426.02 298 510 C300.97 510.66 303.94 511.32 307 512 C319.97972128 518.65579457 328.54890619 529.76490673 333.140625 543.3828125 C336.08394971 555.77153377 334.37050925 568.7288209 327.875 579.625 C321.20569382 589.38529985 313.95981115 595.48887665 303 600 C302.09894531 600.37382813 301.19789063 600.74765625 300.26953125 601.1328125 C289.5922505 603.96477944 276.34034028 603.41066322 266.4453125 598.51953125 C263.3300655 596.58369885 260.50429767 594.43687591 257.81640625 591.94140625 C257.21699219 591.63074219 256.61757813 591.32007813 256 591 C252.44938571 592.18216072 249.32133 593.87102851 246.10546875 595.765625 C244.69164917 596.59477417 244.69164917 596.59477417 243.24926758 597.44067383 C242.23888428 598.03775146 241.22850098 598.6348291 240.1875 599.25 C238.00787084 600.53004726 235.82818173 601.80999245 233.6484375 603.08984375 C232.53823242 603.7432373 231.42802734 604.39663086 230.28417969 605.06982422 C225.30178171 607.99807566 220.30666803 610.90438633 215.3125 613.8125 C206.36700179 619.02806011 197.43184666 624.26111429 188.5 629.5 C176.65008551 636.45044933 164.78874751 643.38105772 152.91943359 650.29833984 C148.94953456 652.61228835 144.98047398 654.92767283 141.01147461 657.24316406 C139.00584879 658.4132073 137.00015231 659.58312943 134.99438477 660.75292969 C130.01857047 663.65498223 125.0435858 666.55843857 120.0703125 669.46484375 C108.47459228 676.23910029 96.85659427 682.97305232 85.21923828 689.67553711 C79.29628807 693.08954022 73.38543523 696.52174365 67.5 700 C60.19343339 704.31713918 52.85002802 708.56991825 45.5 712.8125 C43.85161133 713.76479492 43.85161133 713.76479492 42.16992188 714.73632812 C36.14246892 718.21158318 30.09645826 721.64714261 24 725 C24.03480469 725.87140625 24.06960938 726.7428125 24.10546875 727.640625 C24.47354959 743.8361818 20.63294687 756.85060273 9.3984375 768.73828125 C-1.92875917 779.41979082 -14.13530136 781.60137151 -29.21484375 781.34375 C-41.04028742 780.7858364 -50.25863157 774.09573126 -58.1875 765.8125 C-62.31435023 761.02081338 -64.7129626 755.85056079 -67 750 C-67.3609375 749.12472656 -67.721875 748.24945312 -68.09375 747.34765625 C-70.85760241 740.18784892 -70.48145901 732.40729504 -69 725 C-69.88486084 724.72849121 -70.76972168 724.45698242 -71.68139648 724.17724609 C-74.76447735 723.08354964 -77.29451894 721.83073469 -80.09765625 720.1640625 C-81.05260986 719.60090332 -82.00756348 719.03774414 -82.99145508 718.45751953 C-84.0048999 717.85278809 -85.01834473 717.24805664 -86.0625 716.625 C-88.23387039 715.34289501 -90.40575426 714.06165929 -92.578125 712.78125 C-93.66287109 712.14058594 -94.74761719 711.49992188 -95.86523438 710.83984375 C-100.32264277 708.22371994 -104.81582187 705.67281 -109.3125 703.125 C-118.01808486 698.17835963 -126.6341913 693.08609344 -135.23812866 687.96557617 C-143.68638059 682.93948203 -152.17876021 678.00244188 -160.72631836 673.14746094 C-165.86588356 670.22645237 -170.97669275 667.26353429 -176.0625 664.25 C-182.85743313 660.22568852 -189.70891235 656.30537292 -196.57296753 652.40026855 C-206.60556787 646.69220845 -216.58427325 640.9096366 -226.5 635 C-237.93004166 628.19027682 -249.45252753 621.5600753 -261.015625 614.98046875 C-269.21887318 610.3121881 -277.39232288 605.59292495 -285.56469727 600.87084961 C-287.5245723 599.73843202 -289.48671561 598.60992621 -291.45166016 597.48632812 C-293.03300156 596.56400522 -294.59905932 595.6142162 -296.13818359 594.62304688 C-298.12418494 593.31145284 -298.12418494 593.31145284 -301 592 C-303.16742675 592.45501886 -303.16742675 592.45501886 -305 594 C-306.9784282 595.00146022 -308.95765679 596.00134012 -310.9375 597 C-311.95714844 597.515625 -312.97679687 598.03125 -314.02734375 598.5625 C-324.60134297 603.67581368 -335.76303203 604.45157556 -347 601 C-360.36883051 595.72930015 -370.93880935 587.38262887 -377 574 C-381.32304143 562.34586929 -381.78470273 549.43720537 -377.32421875 537.77734375 C-371.904386 526.4100839 -362.67656702 516.08978562 -351 511 C-348.69 510.67 -346.38 510.34 -344 510 C-344 428.49 -344 346.98 -344 263 C-346.97 262.34 -349.94 261.68 -353 261 C-356.27148627 259.34729361 -359.08114438 257.20991156 -362 255 C-363.546875 253.88625 -363.546875 253.88625 -365.125 252.75 C-373.95072654 244.3080007 -379.94835929 232.93339167 -380.29272461 220.61962891 C-380.41814958 207.57233515 -377.47025164 197.18232378 -369 187 C-368.47664063 186.36449219 -367.95328125 185.72898437 -367.4140625 185.07421875 C-359.67850825 176.56510907 -349.12106014 171.28719461 -337.66796875 170.6640625 C-321.80216789 170.34548618 -310.3357213 174.88732388 -298 185 C-297.39865234 184.64921387 -296.79730469 184.29842773 -296.17773438 183.93701172 C-295.32501953 183.43959473 -294.47230469 182.94217773 -293.59375 182.4296875 C-292.6346875 181.87023437 -291.675625 181.31078125 -290.6875 180.734375 C-286.83032227 178.48435465 -282.97314453 176.23433431 -279.1159668 173.98431396 C-278.54531494 173.65143372 -277.97466309 173.31855347 -277.38671875 172.97558594 C-275.22265625 171.71321615 -273.05859375 170.45084635 -270.89453125 169.18847656 C-269.90839844 168.61323242 -268.92226563 168.03798828 -267.90625 167.4453125 C-266.44215698 166.59126831 -266.44215698 166.59126831 -264.94848633 165.7199707 C-262.96392501 164.56229624 -260.97938769 163.40458063 -258.99487305 162.24682617 C-254.05572814 159.36542496 -249.11620204 156.48468187 -244.17578125 153.60546875 C-224.65038852 142.22462789 -205.13578267 130.82473442 -185.6875 119.3125 C-177.29144924 114.3427816 -168.87141079 109.41542791 -160.44091797 104.50439453 C-149.48051269 98.11855406 -138.53891484 91.70076036 -127.59744263 85.28256226 C-123.22738101 82.71928483 -118.85612201 80.15805792 -114.484375 77.59765625 C-113.24022843 76.86882525 -111.99608778 76.13998415 -110.75195312 75.41113281 C-108.31608568 73.98413519 -105.87982409 72.55781349 -103.44335938 71.13183594 C-97.73616278 67.78972674 -92.0382282 64.43313889 -86.359375 61.04296875 C-85.33448975 60.43227539 -84.30960449 59.82158203 -83.25366211 59.19238281 C-81.34073835 58.05101185 -79.42996868 56.9060202 -77.52172852 55.75683594 C-76.68569092 55.25829102 -75.84965332 54.75974609 -74.98828125 54.24609375 C-74.26165283 53.80966553 -73.53502441 53.3732373 -72.78637695 52.92358398 C-71 52 -71 52 -69 52 C-69.165 51.175 -69.33 50.35 -69.5 49.5 C-71.49621091 35.52652362 -67.22278687 22.58030896 -58.91015625 11.3203125 C-44.77737546 -5.84711448 -19.53681682 -10.79306663 0 0 Z M-65.0625 76.0625 C-71.64040098 80.23563917 -78.36691162 84.12698749 -85.125 88 C-94.2267856 93.226917 -103.28981934 98.51209495 -112.3125 103.875 C-121.7545245 109.48658164 -131.21030482 115.07307097 -140.6875 120.625 C-141.29695465 120.98205017 -141.9064093 121.33910034 -142.53433228 121.70697021 C-151.65431539 127.0487805 -160.78268291 132.3761834 -169.9140625 137.69848633 C-181.38632678 144.38715829 -192.83981853 151.10782948 -204.29443359 157.82666016 C-207.95246863 159.97224418 -211.61093055 162.11709945 -215.26953125 164.26171875 C-215.86678513 164.61183014 -216.464039 164.96194153 -217.07939148 165.32266235 C-220.08821266 167.08639893 -223.09713669 168.84995979 -226.10620117 170.61328125 C-231.61991388 173.84456901 -237.1328311 177.07718303 -242.64237976 180.31556702 C-257.37356127 188.97405877 -272.13400516 197.57404019 -287 206 C-286.98839844 207.27875 -286.97679687 208.5575 -286.96484375 209.875 C-286.95545731 211.58333186 -286.94635803 213.29166532 -286.9375 215 C-286.92912109 215.83917969 -286.92074219 216.67835938 -286.91210938 217.54296875 C-286.89175967 222.79319339 -287.23631793 227.80455662 -288 233 C-281.03552181 237.24313967 -273.98774981 241.33761366 -266.92504883 245.4140625 C-262.37916761 248.03931435 -257.8403071 250.67570751 -253.3125 253.33203125 C-241.91632979 260.01485968 -230.46249461 266.5733309 -218.91967773 272.99975586 C-210.19786684 277.86417637 -201.5745787 282.88120061 -193 288 C-194.32498907 290.77939569 -195.82898868 293.27174162 -197.5625 295.8125 C-199.99137399 299.62011717 -200.71998505 302.51976087 -201 307 C-208.80385601 302.79221787 -216.51537189 298.44289905 -224.1875 294 C-225.88253662 293.02051392 -225.88253662 293.02051392 -227.61181641 292.02124023 C-236.01753143 287.16146587 -244.40169118 282.2650315 -252.78198242 277.36157227 C-258.32060754 274.12701519 -263.87400829 270.92001717 -269.4453125 267.7421875 C-270.07500946 267.38299728 -270.70470642 267.02380707 -271.35348511 266.6537323 C-274.42127119 264.90485931 -277.49064083 263.15882898 -280.56201172 261.41625977 C-281.67592285 260.78260498 -282.78983398 260.1489502 -283.9375 259.49609375 C-285.51144531 258.60253174 -285.51144531 258.60253174 -287.1171875 257.69091797 C-289.66444714 256.19681903 -292.11026432 254.61558629 -294.5625 252.97265625 C-297.65372451 250.73046154 -297.65372451 250.73046154 -300.10742188 251.29956055 C-302.32753448 252.12121987 -303.69913892 253.21768838 -305.5 254.75 C-310 258 -310 258 -322 263 C-322 344.51 -322 426.02 -322 510 C-318.04 511.65 -314.08 513.3 -310 515 C-306.02665373 517.85887109 -302.43924593 520.56075407 -299 524 C-294.35045221 523.74215388 -290.79963497 521.31506797 -286.9375 518.9375 C-285.42699289 518.02793271 -283.91517343 517.12054277 -282.40234375 516.21484375 C-281.13366455 515.45469971 -281.13366455 515.45469971 -279.83935547 514.67919922 C-274.8728735 511.74201409 -269.85307939 508.89788579 -264.83770752 506.0453186 C-255.89246646 500.9571167 -246.96656138 495.84142372 -238.11303711 490.59472656 C-231.61112099 486.74955096 -225.04879814 483.01152642 -218.47875977 479.28417969 C-212.59965761 475.94171109 -206.78494397 472.50285251 -201 469 C-201.103125 470.11375 -201.20625 471.2275 -201.3125 472.375 C-201.35584391 477.23818623 -199.44585676 480.63885901 -197.09375 484.80078125 C-196 487 -196 487 -196 490 C-208.51018117 497.24384962 -221.02539624 504.47494706 -233.625 511.5625 C-242.57798436 516.59952415 -251.45691234 521.75470097 -260.31884766 526.94995117 C-269.13609493 532.10708513 -278.04242795 537.09143148 -287 542 C-286.99476318 542.589021 -286.98952637 543.17804199 -286.98413086 543.78491211 C-286.96310197 546.50243017 -286.95025854 549.21993101 -286.9375 551.9375 C-286.92912109 552.86369141 -286.92074219 553.78988281 -286.91210938 554.74414062 C-286.89162214 560.58300303 -287.24570213 566.20913053 -288 572 C-286.93193115 572.60920288 -286.93193115 572.60920288 -285.84228516 573.23071289 C-263.51644483 585.96818856 -241.22715842 598.76595904 -219.03369141 611.7331543 C-208.47352916 617.8994513 -197.87857454 624.00505039 -187.28222656 630.10888672 C-181.85340059 633.23680148 -176.42680025 636.36857247 -171 639.5 C-164.41827123 643.29739963 -157.83635928 647.09448093 -151.25390625 650.890625 C-119.4821594 669.21444092 -119.4821594 669.21444092 -104.60498047 677.88842773 C-102.62071402 679.04475145 -100.63536331 680.1992166 -98.64892578 681.35180664 C-93.46410654 684.36657281 -88.30117556 687.41209705 -83.17404175 690.52377319 C-80.52172827 692.13155929 -77.86230917 693.72738288 -75.20233154 695.32244873 C-73.90586554 696.10441386 -72.61288309 696.89218529 -71.32354736 697.68585205 C-69.52098604 698.79482791 -67.70755916 699.88353406 -65.890625 700.96875 C-64.84938477 701.60232422 -63.80814453 702.23589844 -62.73535156 702.88867188 C-60.10376441 704.29684815 -60.10376441 704.29684815 -57.74365234 703.28637695 C-55.81628595 701.86446523 -54.1034782 700.34610355 -52.375 698.6875 C-46.62323987 693.53779327 -40.55388072 690.51077614 -33 689 C-32.67 657.98 -32.34 626.96 -32 595 C-30.35 595.33 -28.7 595.66 -27 596 C-20.96264504 596.29213008 -18.19557399 595.770164 -12 594 C-12 625.35 -12 656.7 -12 689 C-8.04 690.485 -8.04 690.485 -4 692 C0.7291401 694.18995565 4.70537708 696.45647525 8.1875 700.375 C9.115625 701.24125 10.04375 702.1075 11 703 C15.56961428 702.76232469 18.7758871 701.27050684 22.67578125 698.97265625 C23.74199707 698.35060303 24.80821289 697.7285498 25.90673828 697.08764648 C27.03063965 696.41934814 28.15454102 695.7510498 29.3125 695.0625 C30.49153511 694.3703404 31.6710645 693.67902213 32.85107422 692.98852539 C35.18560798 691.62034442 37.51699442 690.24706098 39.84521484 688.86816406 C42.44159564 687.33066941 45.04126495 685.79922608 47.64453125 684.2734375 C50.31092556 682.70964887 52.97480651 681.14171799 55.63671875 679.5703125 C69.41758757 671.44272094 83.25901905 663.4187936 97.125 655.4375 C106.05646973 650.29507854 114.95219516 645.09707545 123.81738281 639.84130859 C133.49785218 634.10415022 143.22139951 628.44156687 152.94580078 622.77929688 C156.02607995 620.9848065 159.1050549 619.18809916 162.18359375 617.390625 C171.32098445 612.0558861 180.4618619 606.72790828 189.625 601.4375 C197.36966015 596.96476715 205.07041752 592.42005729 212.76513672 587.86206055 C219.0758781 584.12748636 225.40396243 580.42427789 231.75 576.75 C232.554375 576.28400391 233.35875 575.81800781 234.1875 575.33789062 C239.73577949 572.13211025 239.73577949 572.13211025 242 571 C241.83628906 569.906875 241.67257812 568.81375 241.50390625 567.6875 C240.84990093 562.45545742 240.89029598 557.26506338 240.9375 552 C240.94201172 551.03449219 240.94652344 550.06898438 240.95117188 549.07421875 C240.96284583 546.71607911 240.97921979 544.35807398 241 542 C240.195625 541.58492187 239.39125 541.16984375 238.5625 540.7421875 C229.34676776 535.93134945 220.36736451 530.75760475 211.40356445 525.49438477 C204.36769024 521.36779 197.296323 517.3120378 190.1875 513.3125 C182.2166063 508.8279373 174.27697411 504.29499109 166.37573242 499.6887207 C164.25377233 498.45334123 162.12827769 497.224462 160 496 C159.1862793 495.53078125 158.37255859 495.0615625 157.53417969 494.578125 C156.72625977 494.11921875 155.91833984 493.6603125 155.0859375 493.1875 C154.35165527 492.76855469 153.61737305 492.34960938 152.86083984 491.91796875 C151.04688576 490.85253114 151.04688576 490.85253114 149 491 C149.433125 490.0821875 149.86625 489.164375 150.3125 488.21875 C150.87578493 486.97952315 151.4382407 485.73991918 152 484.5 C152.28617188 483.89929688 152.57234375 483.29859375 152.8671875 482.6796875 C154.99336507 477.92109961 155.27622692 474.20227368 155 469 C170.19275987 477.61725443 185.31622738 486.32952335 200.32348633 495.26635742 C208.01495938 499.84062621 215.74206619 504.34370709 223.53466797 508.74365234 C227.85604171 511.18579989 232.13798358 513.6741074 236.37890625 516.25390625 C237.24966797 516.77750732 238.12042969 517.3011084 239.01757812 517.84057617 C240.67401862 518.839303 242.32296576 519.85060049 243.96289062 520.8762207 C244.69830078 521.31667725 245.43371094 521.75713379 246.19140625 522.2109375 C246.83279541 522.60587402 247.47418457 523.00081055 248.13500977 523.40771484 C250.04771086 524.22589845 250.04771086 524.22589845 252.08520508 523.22460938 C255.47207422 521.05853318 258.59080165 518.54189663 261.7578125 516.0703125 C265 514 265 514 275 510 C275 428.49 275 346.98 275 263 C271.7 261.68 268.4 260.36 265 259 C262.29157764 257.22624888 259.84703918 255.31539504 257.32421875 253.29296875 C254.31395549 251.61835171 253.27069773 252.08573339 250 253 C247.46099872 254.16677893 247.46099872 254.16677893 244.88671875 255.66796875 C243.89849121 256.22427979 242.91026367 256.78059082 241.89208984 257.35375977 C240.30581787 258.26146118 240.30581787 258.26146118 238.6875 259.1875 C237.58100098 259.81390381 236.47450195 260.44030762 235.33447266 261.08569336 C226.81247035 265.92490844 218.3440059 270.85562095 209.89013672 275.81274414 C201.20021705 280.90381538 192.44030929 285.86438589 183.6640625 290.8046875 C176.91436402 294.60564814 170.19186758 298.45386978 163.47192383 302.30712891 C162.64974365 302.77812012 161.82756348 303.24911133 160.98046875 303.734375 C160.25754639 304.14913086 159.53462402 304.56388672 158.78979492 304.99121094 C157.54425989 305.69323669 156.27881122 306.36059439 155 307 C154.938125 305.2984375 154.938125 305.2984375 154.875 303.5625 C154.32900636 298.76799337 152.06907844 295.74200304 149.1796875 291.98046875 C148.79039062 291.32691406 148.40109375 290.67335938 148 290 C149.29629808 286.11110575 150.6003561 285.833288 154.16015625 283.91796875 C155.25142822 283.32306641 156.3427002 282.72816406 157.46704102 282.11523438 C158.0522049 281.80158936 158.63736877 281.48794434 159.24026489 281.16479492 C162.34800779 279.49806084 165.43842929 277.79968188 168.53125 276.10546875 C169.16265396 275.76063446 169.79405792 275.41580017 170.44459534 275.06051636 C176.37918934 271.81216021 182.23016778 268.42841581 188.0625 265 C190.02211621 263.85022768 191.9817518 262.7004884 193.94140625 261.55078125 C194.92383301 260.97408691 195.90625977 260.39739258 196.91845703 259.80322266 C211.86256132 251.05839979 226.87603357 242.4301263 242 234 C241.80535156 232.71480469 241.61070312 231.42960938 241.41015625 230.10546875 C241.00695999 226.61451233 241.10274324 223.68820394 241.74609375 220.23828125 C242.60041151 214.93980677 243.09466117 210.06184151 241 205 C235.54748745 199.19155371 227.66401928 196.10586071 220.57617188 192.74804688 C215.15456816 190.09794566 209.97036295 187.06314805 204.76171875 184.02398682 C202.40249033 182.65270165 200.03151588 181.30249496 197.66003418 179.95254517 C187.70325367 174.28466761 177.81369022 168.5019385 167.92675781 162.71337891 C162.9949194 159.82618822 158.06044184 156.94352583 153.125 154.0625 C152.13983398 153.48741699 151.15466797 152.91233398 150.13964844 152.31982422 C142.7727766 148.02387801 135.38933859 143.7571643 128 139.5 C116.6325918 132.95098026 105.29436388 126.35320145 93.96777344 119.73388672 C87.9826042 116.237122 81.99414454 112.74599426 76.00610352 109.25415039 C70.96726212 106.31547672 65.92967378 103.374695 60.89453125 100.4296875 C50.27950274 94.22427911 39.64985725 88.04933196 28.94848633 81.99365234 C28.15079834 81.54070801 27.35311035 81.08776367 26.53125 80.62109375 C25.77070312 80.1916748 25.01015625 79.76225586 24.2265625 79.31982422 C21.3181792 77.59584175 18.5526118 75.67867682 15.80664062 73.70727539 C13.95463551 72.75181453 13.95463551 72.75181453 11.89038086 73.77587891 C9.78457058 75.13950189 7.95919972 76.67063518 6.0625 78.3125 C1 82 1 82 -12 87 C-12 120.99 -12 154.98 -12 190 C-14.31 189.34 -16.62 188.68 -19 188 C-23.48550283 187.54213725 -27.56949991 188.11389998 -32 189 C-32.495 139.005 -32.495 139.005 -33 88 C-38.445 86.02 -38.445 86.02 -44 84 C-47.41015625 81.96484375 -47.41015625 81.96484375 -50.0625 79.9375 C-50.96097656 79.26589844 -51.85945313 78.59429687 -52.78515625 77.90234375 C-55 76 -55 76 -57 73 C-60.74297805 73 -61.92694684 74.0310756 -65.0625 76.0625 Z " fill="#0454CE" transform="translate(650,216)"/>
<path d="M0 0 C0.94617188 -0.01933594 1.89234375 -0.03867187 2.8671875 -0.05859375 C12.5247263 1.41203866 21.09913954 7.77657327 29.375 12.6875 C30.62085169 13.42098422 31.86694434 14.15405932 33.11328125 14.88671875 C40.12881687 19.01979456 47.08546939 23.24003303 54.01171875 27.52148438 C58.98110637 30.57980888 63.9911368 33.56943345 69 36.5625 C78.09812487 42.01061758 87.17505455 47.49169047 96.2277832 53.01489258 C101.57808797 56.27915133 106.93353736 59.53456024 112.296875 62.77734375 C119.2493916 66.98140446 126.19012036 71.20440581 133.125 75.4375 C133.98270996 75.95844238 134.84041992 76.47938477 135.72412109 77.01611328 C137.78185378 78.27007845 139.8304085 79.53726368 141.875 80.8125 C142.92171875 81.45960938 143.9684375 82.10671875 145.046875 82.7734375 C145.73265625 83.32257813 146.4184375 83.87171875 147.125 84.4375 C147.125 85.4275 147.125 86.4175 147.125 87.4375 C144.99902344 89.06884766 144.99902344 89.06884766 141.984375 90.8515625 C140.86442139 91.521875 139.74446777 92.1921875 138.59057617 92.8828125 C137.35211824 93.60948999 136.11359103 94.33604941 134.875 95.0625 C133.60779424 95.8165574 132.34128271 96.57178259 131.07543945 97.328125 C128.43070901 98.9071764 125.78300718 100.48107197 123.13330078 102.05175781 C117.42991809 105.43874016 111.76814149 108.89388237 106.10412598 112.34613037 C97.49483016 117.59048612 88.86695273 122.80313651 80.21484375 127.9765625 C76.84416056 129.99879763 73.48600158 132.04123163 70.12890625 134.0859375 C67.81517323 135.49490527 65.50139655 136.90380085 63.1875 138.3125 C62.59805603 138.67142334 62.00861206 139.03034668 61.40130615 139.40014648 C54.18865503 143.78937374 46.95708382 148.14435379 39.69140625 152.4453125 C38.98619339 152.86287811 38.28098053 153.28044373 37.55439758 153.71066284 C34.14306708 155.72928241 30.72947549 157.74395435 27.31274414 159.75341797 C26.04423263 160.50193817 24.77591882 161.25079354 23.5078125 162 C22.89584518 162.36014191 22.28387787 162.72028381 21.65336609 163.09133911 C18.44827021 164.99405163 15.30639876 166.95969771 12.20996094 169.03515625 C11.57524872 169.45788818 10.9405365 169.88062012 10.28659058 170.31616211 C9.078158 171.127252 7.87691487 171.94919244 6.68435669 172.78344727 C2.70592685 175.45367171 2.70592685 175.45367171 0.09033203 175.38085938 C-2.56272694 174.10739107 -5.08847761 172.71394626 -7.625 171.21875 C-8.18642197 170.88935928 -8.74784393 170.55996857 -9.32627869 170.22059631 C-11.17895997 169.13141015 -13.02705174 168.03469434 -14.875 166.9375 C-16.18159389 166.16636817 -17.48831801 165.39545696 -18.79516602 164.62475586 C-28.66899968 158.79074155 -38.48376915 152.86049184 -48.27490234 146.88891602 C-56.19273374 142.06002544 -64.13559899 137.27506783 -72.09475708 132.51461792 C-83.11183727 125.92476952 -94.08123807 119.26575321 -104.99462891 112.50488281 C-110.99619215 108.79549963 -117.02610765 105.14295954 -123.09375 101.54296875 C-123.78484863 101.13209015 -124.47594727 100.72121155 -125.18798828 100.29788208 C-128.57240157 98.2860794 -131.96045557 96.2809725 -135.35546875 94.28710938 C-136.58089955 93.56018298 -137.80616836 92.83298342 -139.03125 92.10546875 C-140.11212891 91.46891357 -141.19300781 90.8323584 -142.30664062 90.17651367 C-144.875 88.4375 -144.875 88.4375 -146.875 85.4375 C-141.28014682 81.57113805 -135.5396565 77.99483526 -129.69824219 74.51416016 C-122.96616661 70.50099315 -116.26200219 66.44222724 -109.5625 62.375 C-108.96045746 62.00958099 -108.35841492 61.64416199 -107.73812866 61.26766968 C-99.0980186 56.02171958 -90.47882745 50.74280915 -81.875 45.4375 C-71.78277223 39.21450918 -61.66488574 33.03517335 -51.52270508 26.89404297 C-50.35757269 26.18849629 -49.19245229 25.48292982 -48.02734375 24.77734375 C-47.44791519 24.42647705 -46.86848663 24.07561035 -46.27149963 23.71411133 C-42.53379408 21.44874551 -38.80350829 19.17159337 -35.07781982 16.88652039 C-32.52257636 15.31959222 -29.96529252 13.75601062 -27.40789795 12.19259644 C-26.19322091 11.44874485 -24.97952849 10.70328262 -23.76690674 9.95608521 C-7.62273489 0.01032891 -7.62273489 0.01032891 0 0 Z " fill="#042E6C" transform="translate(626.875,425.5625)"/>
<path d="M0 0 C4.17874198 1.60557935 7.80864018 3.64715708 11.5625 6.0625 C19.13329498 10.86056023 26.77334821 15.54055702 34.4375 20.1875 C35.03901886 20.55239532 35.64053772 20.91729065 36.26028442 21.29324341 C45.67318634 27.00176445 55.10820208 32.67289439 64.55322266 38.328125 C73.09306359 43.445268 81.6047525 48.60781976 90.11062622 53.78112793 C96.62895544 57.74544234 103.1509763 61.70280882 109.70166016 65.61352539 C111.28240598 66.559067 112.85646911 67.51639919 114.41082287 68.50472641 C118.66182765 71.16091651 122.76410487 73.37304684 127.45549011 75.15324402 C133.61396305 77.7438994 138.9279788 80.56756626 143 86 C146.59358955 96.42392731 145.51401308 108.15910526 145.1292727 119.0209887 C144.9971116 123.38579847 144.98559397 127.75097574 144.96073914 132.11747742 C144.89571131 140.36825782 144.72376754 148.6131272 144.51239985 156.86131495 C144.27686941 166.25842155 144.1620189 175.65582563 144.05679572 185.05515349 C143.8378536 204.37344217 143.46900548 223.6862445 143 243 C139.401349 241.59316552 136.11969197 240.02375219 132.7734375 238.0859375 C131.75596436 237.49828613 130.73849121 236.91063477 129.69018555 236.30517578 C128.59617432 235.66821777 127.50216309 235.03125977 126.375 234.375 C125.21337277 233.70153036 124.05166878 233.02819309 122.88989258 232.35498047 C113.66887263 227.00355262 104.49364472 221.57518092 95.32836914 216.12890625 C87.00568044 211.18347985 78.66554821 206.26893413 70.3125 201.375 C69.70670105 201.01994385 69.1009021 200.6648877 68.47674561 200.29907227 C61.10850195 195.98117464 53.73139264 191.67891744 46.34643555 187.38964844 C42.46133058 185.12992858 38.58199378 182.86050727 34.70556641 180.5859375 C32.92320599 179.54116099 31.13906479 178.49941564 29.35302734 177.4609375 C16.48953901 169.96316517 5.13192513 163.2905315 0.45063114 148.23292923 C-0.11300731 145.44003574 -0.1227034 142.82675744 -0.12025452 139.97625732 C-0.12162918 138.74229218 -0.12300385 137.50832703 -0.12442017 136.23696899 C-0.12088127 134.87249732 -0.11724647 133.50802588 -0.11352539 132.14355469 C-0.11324327 130.70455935 -0.11340174 129.26556386 -0.1139679 127.8265686 C-0.1142549 123.92195871 -0.10837371 120.01737951 -0.10139394 116.11277676 C-0.0951444 112.03150526 -0.09455533 107.95023306 -0.09336853 103.86895752 C-0.09025994 96.14131988 -0.08205291 88.41369637 -0.07201904 80.68606496 C-0.06084325 71.88807624 -0.05534375 63.09008685 -0.05032361 54.2920928 C-0.03986992 36.19472052 -0.0222796 18.09736139 0 0 Z " fill="#042E6B" transform="translate(469,542)"/>
<path d="M0 0 C0.16398025 18.79410532 0.28718451 37.5880642 0.3626852 56.38273811 C0.39868327 65.11070893 0.44770599 73.83823363 0.52807617 82.56591797 C0.59814488 90.17859843 0.6430777 97.79095561 0.65861946 105.40394962 C0.66769564 109.43009873 0.68881792 113.45532351 0.7401104 117.48117447 C0.7881338 121.2817494 0.8021806 125.08103215 0.79175377 128.88188171 C0.79455496 130.91901268 0.8319572 132.95600749 0.87094116 134.99276733 C0.78316013 146.37481089 -2.93128485 155.49629414 -10.3125 164.25 C-15.44398192 168.8839428 -21.6678961 171.88780682 -27.7265625 175.125 C-33.53701734 178.24913702 -39.17111688 181.64489676 -44.8125 185.0625 C-54.20857025 190.73976282 -63.64713509 196.33575823 -73.125 201.875 C-83.84227436 208.13721437 -83.84227436 208.13721437 -94.5 214.5 C-101.2365187 218.56266353 -108.01326995 222.55625382 -114.79663086 226.54003906 C-116.07708926 227.29221435 -117.35721227 228.04496097 -118.63696289 228.79833984 C-120.46005517 229.87125673 -122.28453758 230.94177329 -124.109375 232.01171875 C-125.70217285 232.94697388 -125.70217285 232.94697388 -127.32714844 233.90112305 C-130.43246774 235.6980527 -133.57844852 237.41596416 -136.72955322 239.13117981 C-138.21124685 239.93808368 -138.21124685 239.93808368 -139.72287369 240.76128864 C-140.47432537 241.17006339 -141.22577705 241.57883814 -142 242 C-142.32735403 221.68569707 -142.57406831 201.37193072 -142.72537041 181.05553532 C-142.79749791 171.62165617 -142.89578501 162.18941763 -143.05615234 152.7565918 C-143.19589959 144.53270676 -143.28606056 136.31000981 -143.31723893 128.08497041 C-143.33546118 123.73092708 -143.37811865 119.38028169 -143.48022079 115.0273304 C-143.57566837 110.92462863 -143.60449165 106.82670236 -143.58350754 102.72299576 C-143.58734203 101.22199529 -143.61497602 99.72082623 -143.66887665 98.22078896 C-144.0443857 87.22600441 -144.0443857 87.22600441 -140.65647364 83.53711772 C-137.3267645 80.81215482 -133.67690269 78.80894694 -129.82570958 76.92043865 C-126.90399406 75.44744431 -124.15917403 73.71704373 -121.375 72 C-120.11661348 71.24877907 -118.85760318 70.49860087 -117.59765625 69.75 C-111.64837296 66.20125725 -105.73238403 62.59746799 -99.8125 59 C-98.60206246 58.26471058 -97.39161315 57.52944056 -96.18115234 56.79418945 C-91.22489374 53.78342311 -86.26925412 50.77163877 -81.31396484 47.75927734 C-77.70960893 45.5681926 -74.10491997 43.37765659 -70.5 41.1875 C-69.91145233 40.82987579 -69.32290466 40.47225159 -68.71652222 40.10379028 C-61.45098826 35.68979723 -54.17254811 31.29837592 -46.875 26.9375 C-36.78317289 20.90392959 -26.77336217 14.73802438 -16.765625 8.56640625 C-15.2796582 7.65205811 -15.2796582 7.65205811 -13.76367188 6.71923828 C-12.02044665 5.63480435 -10.28597161 4.53605333 -8.56445312 3.41748047 C-3.29718783 0 -3.29718783 0 0 0 Z " fill="#042E6B" transform="translate(785,543)"/>
<path d="M0 0 C0.66 0.33 1.32 0.66 2 1 C1.01 1.66 0.02 2.32 -1 3 C-1.45474255 4.87030006 -1.45474255 4.87030006 -1.38476086 7.05673409 C-1.3942174 7.9106647 -1.40367394 8.76459532 -1.41341704 9.64440262 C-1.40856947 10.58796832 -1.40372189 11.53153403 -1.39872742 12.50369263 C-1.40537424 13.50178825 -1.41202107 14.49988388 -1.41886932 15.52822483 C-1.43761679 18.89408109 -1.43488613 22.25958555 -1.43237305 25.62548828 C-1.44138303 28.02969876 -1.45170834 30.43390462 -1.46325684 32.83810425 C-1.48519797 38.02516523 -1.49793538 43.2121633 -1.50238609 48.39926529 C-1.5088369 55.89898823 -1.5317553 63.3985892 -1.55872939 70.89826308 C-1.60204114 83.06513352 -1.63198278 95.23199883 -1.65356445 107.39892578 C-1.67456103 119.21991495 -1.70182452 131.04086217 -1.73754883 142.86181641 C-1.73974765 143.59011788 -1.74194648 144.31841935 -1.74421193 145.06879057 C-1.75528126 148.72236301 -1.76647413 152.37593505 -1.77772844 156.02950692 C-1.87097563 186.352969 -1.9423228 216.67644819 -2 247 C-1.34 247 -0.68 247 0 247 C0 247.99 0 248.98 0 250 C-1.65 249.67 -3.3 249.34 -5 249 C-5 167.49 -5 85.98 -5 2 C-3.35 1.34 -1.7 0.68 0 0 Z " fill="#F9FBFD" transform="translate(953,477)"/>
<path d="M0 0 C0.66 0.33 1.32 0.66 2 1 C1.01 1.66 0.02 2.32 -1 3 C-3.04988562 6.07482842 -3.2509962 6.69727132 -3.26171303 10.16416454 C-3.26917852 11.01660281 -3.27664401 11.86904108 -3.28433573 12.74731082 C-3.282401 13.68407273 -3.28046626 14.62083464 -3.2784729 15.58598328 C-3.2842653 16.58084977 -3.2900577 17.57571627 -3.29602563 18.60073024 C-3.31309277 21.94959149 -3.31590792 25.2983155 -3.31884766 28.6472168 C-3.32814119 31.04172099 -3.338309 33.43622194 -3.34928894 35.83071899 C-3.37098924 40.99374091 -3.38658172 46.15674328 -3.39665604 51.31979942 C-3.41123235 58.78473688 -3.43676619 66.24960509 -3.46498732 73.71450195 C-3.5104744 85.82535603 -3.54708127 97.93622007 -3.578125 110.04711914 C-3.60830271 121.81276193 -3.64264938 133.57838035 -3.68261719 145.34399414 C-3.68507874 146.0690459 -3.68754028 146.79409765 -3.69007643 147.54112067 C-3.70245088 151.17843832 -3.71490744 154.81575568 -3.72740483 158.45307291 C-3.83100131 188.63534858 -3.92004748 218.81765189 -4 249 C-4.33 249 -4.66 249 -5 249 C-5 167.49 -5 85.98 -5 2 C-3.35 1.34 -1.7 0.68 0 0 Z " fill="#B2CFF2" transform="translate(953,477)"/>
<path d="M0 0 C2.4245744 3.73307487 2.3056422 7.44965274 2.25 11.75 C2.24613281 12.46285156 2.24226562 13.17570313 2.23828125 13.91015625 C2.15573924 18.92687609 1.58106477 23.25680569 0 28 C-0.33 28 -0.66 28 -1 28 C-1.1170409 18.59771406 -0.88495497 9.37104106 0 0 Z " fill="#2C72DE" transform="translate(982,759)"/>
<path d="M0 0 C0.33 0 0.66 0 1 0 C1.07434093 3.86572857 1.06306495 7.27927266 0 11 C0 11.99 0 12.98 0 14 C-0.66 14 -1.32 14 -2 14 C-2 18.29 -2 22.58 -2 27 C-2.33 27 -2.66 27 -3 27 C-3.322092 17.49232119 -3.23806859 9.09743079 0 0 Z " fill="#447FDA" transform="translate(273,415)"/>
<path d="M0 0 C0.33 0 0.66 0 1 0 C1.15010038 3.67745923 1.08708828 6.69809397 0.0625 10.25 C-1.32136654 15.13423484 -1.65302831 19.95064883 -2 25 C-2.33 25 -2.66 25 -3 25 C-3.32177688 16.06175331 -3.33530434 8.43752585 0 0 Z " fill="#437EDA" transform="translate(273,753)"/>
<path d="M0 0 C2.97 0.495 2.97 0.495 6 1 C5.01 1.495 5.01 1.495 4 2 C2.27864122 4.53673925 1.91714603 5.56501664 2.5 8.625 C2.665 9.40875 2.83 10.1925 3 11 C2.34 11.66 1.68 12.32 1 13 C-0.00496852 9.98509443 -0.10335303 7.95818308 -0.0625 4.8125 C-0.05347656 3.91144531 -0.04445313 3.01039063 -0.03515625 2.08203125 C-0.02355469 1.39496094 -0.01195312 0.70789063 0 0 Z " fill="#105DD4" transform="translate(617,810)"/>
<path d="M0 0 C0.66 0.33 1.32 0.66 2 1 C0.34643078 4.58273331 -1.67980703 7.80973467 -4 11 C-4.66 11 -5.32 11 -6 11 C-3.76687117 3.98159509 -3.76687117 3.98159509 -2 1 C-1.34 0.67 -0.68 0.34 0 0 Z " fill="#1560D6" transform="translate(456,503)"/>
<path d="M0 0 C0 0.99 0 1.98 0 3 C-3.66486096 5.91033076 -6.39374606 6.32136655 -11 6 C-3.8 0 -3.8 0 0 0 Z " fill="#1E66D5" transform="translate(688,906)"/>
<path d="M0 0 C0.33 0.66 0.66 1.32 1 2 C-0.43257963 4.72872311 -1.81722366 6.81722366 -4 9 C-4.99 8.67 -5.98 8.34 -7 8 C-4.69 5.36 -2.38 2.72 0 0 Z " fill="#1860D2" transform="translate(596,222)"/>
<path d="M0 0 C0.33 0 0.66 0 1 0 C1.38063221 2.3260857 1.71269945 4.66055264 2 7 C1.67 7.33 1.34 7.66 1 8 C0.76572222 10.01594582 0.58663876 12.038474 0.4375 14.0625 C0.35371094 15.16722656 0.26992188 16.27195312 0.18359375 17.41015625 C0.12300781 18.26480469 0.06242188 19.11945313 0 20 C-0.33 20 -0.66 20 -1 20 C-1.02712351 17.60408962 -1.0468982 15.20849043 -1.0625 12.8125 C-1.07087891 12.13896484 -1.07925781 11.46542969 -1.08789062 10.77148438 C-1.10606538 7.04565869 -0.89299392 3.6211958 0 0 Z " fill="#5389DA" transform="translate(891,421)"/>
<path d="M0 0 C3.3 1.65 6.6 3.3 10 5 C10 5.33 10 5.66 10 6 C5.18569279 6.56638908 2.79692186 4.82561627 -1 2 C-0.67 1.34 -0.34 0.68 0 0 Z " fill="#123373" transform="translate(520,573)"/>
<path d="M0 0 C0.66 0 1.32 0 2 0 C1.6875 2.875 1.6875 2.875 1 6 C0.01 6.66 -0.98 7.32 -2 8 C-1.125 1.125 -1.125 1.125 0 0 Z " fill="#1458CC" transform="translate(276,748)"/>
<path d="M0 0 C5.75 1.625 5.75 1.625 8 5 C4.40142046 5 2.90548882 4.04169485 0 2 C0 1.34 0 0.68 0 0 Z " fill="#1B66D9" transform="translate(648,909)"/>
<path d="M0 0 C1.98 0 3.96 0 6 0 C6 0.66 6 1.32 6 2 C4.02 2.99 2.04 3.98 0 5 C0 3.35 0 1.7 0 0 Z " fill="#12336A" transform="translate(643,780)"/>
<path d="M0 0 C0.66 0.33 1.32 0.66 2 1 C1.01 2.485 1.01 2.485 0 4 C-0.99 4 -1.98 4 -3 4 C-3 4.66 -3 5.32 -3 6 C-4.65 6 -6.3 6 -8 6 C-5.63404067 3.38499232 -3.13950774 1.61000397 0 0 Z " fill="#2262D0" transform="translate(466,334)"/>
<path d="M0 0 C1.98 0.66 3.96 1.32 6 2 C6 2.99 6 3.98 6 5 C4.02 4.34 2.04 3.68 0 3 C0 2.01 0 1.02 0 0 Z " fill="#DAE7F8" transform="translate(728,297)"/>
<path d="M0 0 C3.45925163 1.2491742 6.14693203 2.67527795 9 5 C5.37471432 5.20140476 3.13498292 4.85776765 0 3 C0 2.01 0 1.02 0 0 Z " fill="#226CDD" transform="translate(807,686)"/>
<path d="M0 0 C3.96 1.98 3.96 1.98 8 4 C7.67 4.66 7.34 5.32 7 6 C3.62496331 4.8141763 1.35277269 3.72426311 -1 1 C-0.67 0.67 -0.34 0.34 0 0 Z " fill="#103273" transform="translate(497,559)"/>
<path d="M0 0 C-2.38573379 1.89213369 -4.07175348 3.02391783 -7 4 C-7.66 3.34 -8.32 2.68 -9 2 C-3.375 -1.125 -3.375 -1.125 0 0 Z " fill="#0E5AD3" transform="translate(342,473)"/>
<path d="M0 0 C0 0.66 0 1.32 0 2 C-2.30276574 4.21747812 -3.52480092 4.96760006 -6.75 5.1875 C-7.86375 5.0946875 -7.86375 5.0946875 -9 5 C-2.87096774 0 -2.87096774 0 0 0 Z " fill="#2168D8" transform="translate(566,277)"/>
<path d="M0 0 C2.19726562 1.85546875 2.19726562 1.85546875 4.39453125 3.7109375 C5.8655046 4.89201099 7.43037794 5.95358529 9 7 C5.2241456 6.47557578 2.77627845 5.67345333 0 3 C0 2.01 0 1.02 0 0 Z " fill="#125FD8" transform="translate(345,734)"/>
<path d="M0 0 C0 0.66 0 1.32 0 2 C-0.99 2 -1.98 2 -3 2 C-3.33 2.99 -3.66 3.98 -4 5 C-5.65 5 -7.3 5 -9 5 C-2.87096774 0 -2.87096774 0 0 0 Z " fill="#2567D5" transform="translate(401,713)"/>
<path d="M0 0 C0 0.66 0 1.32 0 2 C-0.99 2 -1.98 2 -3 2 C-3.33 2.99 -3.66 3.98 -4 5 C-5.65 5 -7.3 5 -9 5 C-2.87096774 0 -2.87096774 0 0 0 Z " fill="#2066D7" transform="translate(446,687)"/>
<path d="M0 0 C2.91517292 1.07401108 4.77810176 1.77810176 7 4 C5.68 4 4.36 4 3 4 C2.34 4.66 1.68 5.32 1 6 C0.67 4.02 0.34 2.04 0 0 Z " fill="#16336D" transform="translate(470,543)"/>
<path d="M0 0 C0.66 0.33 1.32 0.66 2 1 C1.360625 1.268125 0.72125 1.53625 0.0625 1.8125 C-2.33131686 2.88667752 -2.33131686 2.88667752 -3 6 C-4.65 6 -6.3 6 -8 6 C-5.38485683 3.87961365 -2.80362384 1.86908256 0 0 Z " fill="#D3DCE9" transform="translate(739,533)"/>
<path d="M0 0 C0.66 0.33 1.32 0.66 2 1 C2 3.31 2 5.62 2 8 C0.68 6.68 -0.64 5.36 -2 4 C-1.34 2.68 -0.68 1.36 0 0 Z " fill="#2162D4" transform="translate(799,502)"/>
<path d="M0 0 C0.66 0.66 1.32 1.32 2 2 C-0.475 3.485 -0.475 3.485 -3 5 C-3.99 4.34 -4.98 3.68 -6 3 C-4.02 2.01 -2.04 1.02 0 0 Z " fill="#1760D3" transform="translate(443,348)"/>
</svg>
